Coordinates
version=1
nRows=60
nColumns=12
inDegrees=yes

Units are S.I. units (second, meters, Newtons, ...)
Angles are in degrees

endheader
time	SC_y	SC_z	SC_x	AC_y	AC_z	AC_x	GH_y	GH_z	GH_yy	EL_x	PS_y
       0.0              -48.19          37.59          60.63           44.7         -3.738          15.81          142.3          45.81          94.72          130.2          102.3
   0.02522              -48.18          37.59          60.62           44.7          -3.74          15.81          142.3          45.81          94.73          130.2          102.3
   0.05045              -48.18          37.59          60.61           44.7         -3.743           15.8          142.3           45.8          94.74          130.2          102.3
   0.07567              -48.18          37.59           60.6          44.71         -3.745           15.8          142.3           45.8          94.75          130.2          102.3
    0.1009              -48.17          37.59          60.59          44.71         -3.748           15.8          142.3           45.8          94.76          130.2          102.3
    0.1261              -48.17          37.59          60.58          44.71         -3.751          15.79          142.3           45.8          94.77          130.2          102.3
    0.1513              -48.17          37.59          60.57          44.72         -3.754          15.79          142.3          45.79          94.78          130.2          102.3
    0.1766              -48.16          37.59          60.55          44.72         -3.758          15.78          142.3          45.79          94.79          130.2          102.3
    0.2018              -48.16          37.58          60.54          44.73         -3.761          15.78          142.3          45.79          94.81          130.2          102.3
     0.227              -48.15          37.58          60.53          44.73         -3.765          15.77          142.3          45.78          94.82          130.2          102.3
    0.2522              -48.15          37.58          60.51          44.74          -3.77          15.77          142.3          45.78          94.84          130.2          102.3
    0.2775              -48.14          37.58          60.49          44.75         -3.774          15.76          142.3          45.78          94.85          130.2          102.3
    0.3027              -48.14          37.58          60.47          44.75         -3.779          15.75          142.3          45.77          94.87          130.2          102.4
    0.3279              -48.13          37.57          60.45          44.76         -3.784          15.75          142.2          45.77          94.89          130.2          102.4
    0.3531              -48.13          37.57          60.43          44.77          -3.79          15.74          142.2          45.76          94.91          130.2          102.4
    0.3784              -48.12          37.57          60.41          44.78         -3.796          15.73          142.2          45.76          94.93          130.2          102.4
    0.4036              -48.11          37.57          60.38          44.79         -3.803          15.72          142.2          45.75          94.96          130.2          102.4
    0.4288               -48.1          37.56          60.36           44.8         -3.811          15.71          142.2          45.74          94.99          130.2          102.4
     0.454              -48.09          37.56          60.33          44.81         -3.819           15.7          142.2          45.74          95.01          130.2          102.4
    0.4793              -48.08          37.56          60.29          44.82         -3.827          15.69          142.2          45.73          95.05          130.2          102.4
    0.5045              -48.07          37.55          60.26          44.84         -3.837          15.67          142.2          45.72          95.08          130.2          102.4
    0.5297              -48.06          37.55          60.22          44.85         -3.848          15.66          142.2          45.71          95.12          130.2          102.5
    0.5549              -48.05          37.54          60.17          44.87          -3.86          15.64          142.2           45.7          95.16          130.2          102.5
    0.5801              -48.03          37.54          60.12          44.89         -3.873          15.62          142.1          45.69          95.21          130.2          102.5
    0.6054              -48.02          37.53          60.07          44.91         -3.887           15.6          142.1          45.68          95.26          130.2          102.5
    0.6306               -48.0          37.52          60.01          44.93         -3.903          15.58          142.1          45.66          95.32          130.2          102.6
    0.6558              -47.98          37.52          59.94          44.96         -3.922          15.56          142.1          45.64          95.39          130.2          102.6
     0.681              -47.95          37.51          59.86          44.98         -3.942          15.53          142.1          45.63          95.46          130.2          102.6
    0.7063              -47.93           37.5          59.77          45.02         -3.965           15.5          142.0          45.61          95.54          130.2          102.7
    0.7315               -47.9          37.49          59.68          45.05         -3.991          15.46          142.0          45.58          95.64          130.2          102.7
    0.7567              -47.86          37.47          59.56           45.1         -4.021          15.42          142.0          45.55          95.74          130.2          102.8
    0.7819              -47.83          37.46          59.43          45.15         -4.055          15.37          141.9          45.52          95.87          130.2          102.8
    0.8072              -47.78          37.44          59.29           45.2         -4.095          15.32          141.9          45.49          96.01          130.2          102.9
    0.8324              -47.73          37.42          59.11          45.27         -4.141          15.25          141.8          45.45          96.18          130.2          103.0
    0.8576              -47.67           37.4          58.91          45.34         -4.195          15.18          141.8           45.4          96.37          130.2          103.1
    0.8828               -47.6          37.37          58.67          45.43         -4.258          15.09          141.7          45.34           96.6          130.2          103.2
    0.9081              -47.51          37.34          58.39          45.54         -4.334          14.99          141.6          45.27          96.87          130.2          103.3
    0.9333              -47.41          37.31          58.05          45.67         -4.424          14.86          141.5          45.19           97.2          130.2          103.4
    0.9585              -47.28          37.26          57.64          45.82         -4.534          14.71          141.4          45.09          97.59          130.2          103.6
    0.9837              -47.13           37.2          57.13          46.01         -4.667          14.52          141.2          44.97          98.07          130.2          103.8
     1.009              -46.94          37.13          56.51          46.24         -4.832          14.29          141.0          44.83          98.67          130.2          104.1
     1.034              -46.71          37.05          55.74          46.54         -5.038          14.01          140.8          44.64          99.41          130.2          104.5
     1.059              -46.42          36.94          54.76           46.9         -5.297          13.65          140.5          44.41          100.3          130.2          104.9
     1.085              -46.04           36.8          53.52          47.37         -5.626          13.19          140.1          44.11          101.5          130.2          105.5
      1.11              -45.57          36.62          51.94          47.96         -6.048          12.61          139.6          43.74          103.0          130.2          106.2
     1.135              -44.95           36.4           49.9          48.73         -6.589          11.86          139.0          43.25          105.0          130.2          107.1
      1.16              -44.17          36.11           47.3          49.71          -7.28           10.9          138.1          42.63          107.5          130.3          108.2
     1.186              -43.18          35.74          44.03          50.94         -8.149          9.698          137.1          41.85          110.6          130.3          109.7
     1.211              -41.98           35.3          40.05          52.44         -9.208           8.23          135.9           40.9          114.4          130.3          111.5
     1.236              -40.59          34.78          35.43          54.17         -10.44          6.529          134.5           39.8          118.9          130.3          113.6
     1.261              -39.08          34.22          30.43          56.05         -11.76          4.687          132.9          38.61          123.6          130.3          115.8
     1.286              -37.57          33.66          25.43          57.94         -13.09          2.845          131.3          37.41          128.4          130.3          118.0
     1.312              -36.18          33.15          20.82          59.67         -14.32          1.143          129.9          36.31          132.9          130.3          120.1
     1.337              -34.98           32.7          16.83          61.17         -15.38        -0.3242          128.7          35.36          136.7          130.3          121.9
     1.362              -33.99          32.34          13.56           62.4         -16.25         -1.529          127.6          34.58          139.8          130.3          123.3
     1.387              -33.21          32.05          10.96          63.38         -16.94         -2.486          126.8          33.96          142.3          130.3          124.5
     1.413               -32.6          31.82           8.93          64.14         -17.48         -3.236          126.2          33.47          144.2          130.3          125.4
     1.438              -32.12          31.64          7.344          64.74          -17.9         -3.821          125.7           33.1          145.8          130.3          126.1
     1.463              -31.74           31.5          6.105          65.21         -18.23         -4.277          125.3           32.8          146.9          130.4          126.7
     1.488              -31.45          31.39           5.13          65.57         -18.49         -4.636          125.0          32.57          147.9          130.4          127.1
